<svg width="512" height="512" viewBox="0 0 512 512" fill="none" xmlns="http://www.w3.org/2000/svg">
  <!-- Blue background with rounded corners -->
  <rect width="512" height="512" rx="80" fill="#3B82F6"/>
  
  <!-- White rectangle for logo area (centered, with padding) -->
  <rect x="56" y="180" width="400" height="152" rx="16" fill="white"/>
  
  <!-- neesac.ai logo (scaled and centered) -->
  <g transform="translate(96, 224)">
    <!-- Letter n -->
    <path d="M0 64V32h8v4c2.1-3.2 5.3-4.8 9.3-4.8 7.5 0 11.2 4.8 11.2 13.3V64h-8v-18c0-4.8-2.1-7.2-5.9-7.2-4 0-6.6 2.7-6.6 7.5V64H0z" fill="#1e293b"/>
    <!-- Letter e -->
    <path d="M37 48c0-10.1 6.7-16.8 16-16.8 8.8 0 14.7 5.9 14.7 15.5v3.2H45.3c.5 4.8 3.5 7.5 8.5 7.5 3.5 0 6.1-1.1 8.5-3.2l4 5.3c-3.2 3.2-8 4.8-13.3 4.8-10.1 0-15.7-6.4-15.7-16.3zm22.7-3.2c-.3-4.3-2.7-6.9-6.7-6.9-3.7 0-6.4 2.4-7.2 6.9h13.9z" fill="#1e293b"/>
    <!-- Letter e -->
    <path d="M74 48c0-10.1 6.7-16.8 16-16.8 8.8 0 14.7 5.9 14.7 15.5v3.2H82.3c.5 4.8 3.5 7.5 8.5 7.5 3.5 0 6.1-1.1 8.5-3.2l4 5.3c-3.2 3.2-8 4.8-13.3 4.8-10.1 0-15.7-6.4-15.7-16.3zm22.7-3.2c-.3-4.3-2.7-6.9-6.7-6.9-3.7 0-6.4 2.4-7.2 6.9h13.9z" fill="#1e293b"/>
    <!-- Letter s -->
    <path d="M112 54.7c0-6.7 5.3-9.3 14.7-10.1l5.3-.5v-.8c0-3.2-1.9-4.8-5.9-4.8-3.2 0-6.7 1.1-10.1 3.2l-3.2-5.9c4.3-2.7 9.3-4.3 14.7-4.3 8.8 0 13.3 4.3 13.3 12V64h-7.5v-3.5c-1.9 2.7-5.3 4.3-9.3 4.3-6.7 0-12-3.7-12-10.1zm20-.2v-2.1l-4.8.5c-4.8.5-6.7 1.9-6.7 4 0 2.4 1.9 3.7 4.8 3.7 3.7 0 6.7-2.4 6.7-6.1z" fill="#1e293b"/>
    <!-- Letter c -->
    <path d="M149 48c0-10.1 6.7-16.8 16-16.8 5.3 0 9.3 1.9 12 5.3l-5.3 5.3c-1.6-2.1-3.7-3.2-6.4-3.2-5.3 0-8.5 3.5-8.5 9.3s3.2 9.3 8.5 9.3c2.7 0 4.8-1.1 6.4-3.2l5.3 5.3c-2.7 3.5-6.7 5.3-12 5.3-9.3 0-16-6.7-16-16.8z" fill="#1e293b"/>
    <!-- .ai dot -->
    <circle cx="188" cy="60" r="5" fill="#6366f1"/>
    <!-- Letter a -->
    <path d="M202 54.7c0-6.7 5.3-9.3 14.7-10.1l5.3-.5v-.8c0-3.2-1.9-4.8-5.9-4.8-3.2 0-6.7 1.1-10.1 3.2l-3.2-5.9c4.3-2.7 9.3-4.3 14.7-4.3 8.8 0 13.3 4.3 13.3 12V64h-7.5v-3.5c-1.9 2.7-5.3 4.3-9.3 4.3-6.7 0-12-3.7-12-10.1zm20-.2v-2.1l-4.8.5c-4.8.5-6.7 1.9-6.7 4 0 2.4 1.9 3.7 4.8 3.7 3.7 0 6.7-2.4 6.7-6.1z" fill="#6366f1"/>
    <!-- Letter i -->
    <path d="M240 21.3c0-2.7 2.1-4.8 4.8-4.8s4.8 2.1 4.8 4.8-2.1 4.8-4.8 4.8-4.8-2.1-4.8-4.8zm.8 10.7h8v32h-8V32z" fill="#6366f1"/>
  </g>
</svg>
