<svg width="120" height="32" viewBox="0 0 120 32" fill="none" xmlns="http://www.w3.org/2000/svg">
  <!-- Letter n -->
  <path d="M0 24V12h3v1.5c.8-1.2 2-1.8 3.5-1.8 2.8 0 4.2 1.8 4.2 5V24h-3v-6.8c0-1.8-.8-2.7-2.2-2.7-1.5 0-2.5 1-2.5 2.8V24H0z" fill="#1e293b"/>
  <!-- Letter e -->
  <path d="M14 18c0-3.8 2.5-6.3 6-6.3 3.3 0 5.5 2.2 5.5 5.8v1.2H17c.2 1.8 1.3 2.8 3.2 2.8 1.3 0 2.3-.4 3.2-1.2l1.5 2c-1.2 1.2-3 1.8-5 1.8-3.8 0-5.9-2.4-5.9-6.1zm8.5-1.2c-.1-1.6-1-2.6-2.5-2.6-1.4 0-2.4.9-2.7 2.6h5.2z" fill="#1e293b"/>
  <!-- Letter e -->
  <path d="M28 18c0-3.8 2.5-6.3 6-6.3 3.3 0 5.5 2.2 5.5 5.8v1.2H31c.2 1.8 1.3 2.8 3.2 2.8 1.3 0 2.3-.4 3.2-1.2l1.5 2c-1.2 1.2-3 1.8-5 1.8-3.8 0-5.9-2.4-5.9-6.1zm8.5-1.2c-.1-1.6-1-2.6-2.5-2.6-1.4 0-2.4.9-2.7 2.6h5.2z" fill="#1e293b"/>
  <!-- Letter s -->
  <path d="M42 20.5c0-2.5 2-3.5 5.5-3.8l2-.2v-.3c0-1.2-.7-1.8-2.2-1.8-1.2 0-2.5.4-3.8 1.2l-1.2-2.2c1.6-1 3.5-1.6 5.5-1.6 3.3 0 5 1.6 5 4.5V24h-2.8v-1.3c-.7 1-2 1.6-3.5 1.6-2.5 0-4.5-1.4-4.5-3.8zm7.5-.8v-.8l-1.8.2c-1.8.2-2.5.7-2.5 1.5 0 .9.7 1.4 1.8 1.4 1.4 0 2.5-.9 2.5-2.3z" fill="#1e293b"/>
  <!-- Letter c -->
  <path d="M56 18c0-3.8 2.5-6.3 6-6.3 2 0 3.5.7 4.5 2l-2 2c-.6-.8-1.4-1.2-2.4-1.2-2 0-3.2 1.3-3.2 3.5s1.2 3.5 3.2 3.5c1 0 1.8-.4 2.4-1.2l2 2c-1 1.3-2.5 2-4.5 2-3.5 0-6-2.5-6-6.3z" fill="#1e293b"/>
  <!-- .ai -->
  <path d="M69 22.5c0-1 .8-1.8 1.8-1.8s1.8.8 1.8 1.8-.8 1.8-1.8 1.8-1.8-.8-1.8-1.8z" fill="#6366f1"/>
  <!-- Letter a -->
  <path d="M76 20.5c0-2.5 2-3.5 5.5-3.8l2-.2v-.3c0-1.2-.7-1.8-2.2-1.8-1.2 0-2.5.4-3.8 1.2l-1.2-2.2c1.6-1 3.5-1.6 5.5-1.6 3.3 0 5 1.6 5 4.5V24h-2.8v-1.3c-.7 1-2 1.6-3.5 1.6-2.5 0-4.5-1.4-4.5-3.8zm7.5-.8v-.8l-1.8.2c-1.8.2-2.5.7-2.5 1.5 0 .9.7 1.4 1.8 1.4 1.4 0 2.5-.9 2.5-2.3z" fill="#6366f1"/>
  <!-- Letter i -->
  <path d="M90 8c0-1 .8-1.8 1.8-1.8s1.8.8 1.8 1.8-.8 1.8-1.8 1.8S90 9 90 8zm.3 4h3v12h-3V12z" fill="#6366f1"/>
</svg>
