<svg width="100" height="24" viewBox="0 0 100 24" fill="none" xmlns="http://www.w3.org/2000/svg">
  <!-- neesac text -->
  <path d="M0 18V9h2.4v1.2c.6-1 1.6-1.4 2.8-1.4 2.2 0 3.4 1.4 3.4 4V18H6.2v-5.4c0-1.4-.6-2.2-1.8-2.2-1.2 0-2 .8-2 2.2V18H0z" fill="white"/>
  <path d="M11.2 13.5c0-3 2-5 4.8-5 2.6 0 4.4 1.8 4.4 4.6v1H13.6c.2 1.4 1 2.2 2.6 2.2 1 0 1.8-.3 2.6-1l1.2 1.6c-1 1-2.4 1.4-4 1.4-3 0-4.8-2-4.8-4.8zm6.8-1c-.1-1.3-.8-2.1-2-2.1-1.1 0-1.9.7-2.2 2.1h4.2z" fill="white"/>
  <path d="M22.4 13.5c0-3 2-5 4.8-5 2.6 0 4.4 1.8 4.4 4.6v1H24.8c.2 1.4 1 2.2 2.6 2.2 1 0 1.8-.3 2.6-1l1.2 1.6c-1 1-2.4 1.4-4 1.4-3 0-4.8-2-4.8-4.8zm6.8-1c-.1-1.3-.8-2.1-2-2.1-1.1 0-1.9.7-2.2 2.1h4.2z" fill="white"/>
  <path d="M33.6 15.5c0-2 1.6-2.8 4.4-3l1.6-.2v-.2c0-1-.6-1.4-1.8-1.4-1 0-2 .3-3 1l-1-1.8c1.3-.8 2.8-1.3 4.4-1.3 2.6 0 4 1.3 4 3.6V18h-2.2v-1c-.6.8-1.6 1.3-2.8 1.3-2 0-3.6-1.1-3.6-3zm6-.6v-.6l-1.4.2c-1.4.2-2 .6-2 1.2 0 .7.6 1.1 1.4 1.1 1.1 0 2-.7 2-1.9z" fill="white"/>
  <path d="M44.8 13.5c0-3 2-5 4.8-5 1.6 0 2.8.6 3.6 1.6l-1.6 1.6c-.5-.6-1.1-1-1.9-1-1.6 0-2.6 1-2.6 2.8s1 2.8 2.6 2.8c.8 0 1.4-.3 1.9-1l1.6 1.6c-.8 1-2 1.6-3.6 1.6-2.8 0-4.8-2-4.8-5z" fill="white"/>
  <!-- Dot -->
  <circle cx="57" cy="16.5" r="1.5" fill="white" fill-opacity="0.8"/>
  <!-- ai text -->
  <path d="M61 15.5c0-2 1.6-2.8 4.4-3l1.6-.2v-.2c0-1-.6-1.4-1.8-1.4-1 0-2 .3-3 1l-1-1.8c1.3-.8 2.8-1.3 4.4-1.3 2.6 0 4 1.3 4 3.6V18h-2.2v-1c-.6.8-1.6 1.3-2.8 1.3-2 0-3.6-1.1-3.6-3zm6-.6v-.6l-1.4.2c-1.4.2-2 .6-2 1.2 0 .7.6 1.1 1.4 1.1 1.1 0 2-.7 2-1.9z" fill="white" fill-opacity="0.8"/>
  <circle cx="74" cy="7" r="1.3" fill="white" fill-opacity="0.8"/>
  <path d="M72.8 9h2.4v9h-2.4V9z" fill="white" fill-opacity="0.8"/>
</svg>




